/* XPM */
static char *cb4rb_ajgn6[] = {
/* columns rows colors chars-per-pixel */
"119 138 2 1 ",
"  c None",
". c #6A6A6A",
/* pixels */
"                                                                                                                       ",
"                                                          ....                                                         ",
"                                                        .......                                                        ",
"                                                       ..........                                                      ",
"                                                     ..............                                                    ",
"                                                   ..................                                                  ",
"                                                 .....................                                                 ",
"                                                ........................                                               ",
"                                              ............................                                             ",
"                                            ................................                                           ",
"                                           ..................................                                          ",
"                                         ......................................                                        ",
"                                       ..........................................                                      ",
"                                     .............................................                                     ",
"                                    ................................................                                   ",
"                                  ....................................................                                 ",
"                                ........................................................                               ",
"                              ...........................................................                              ",
"                             ..............................................................                            ",
"                           ..................................................................                          ",
"                         ......................................................................                        ",
"                       .........................................................................                       ",
"                      .....................................  .....................................                     ",
"                    .....................................      .....................................                   ",
"                  .....................................          .....................................                 ",
"                 ....................................             .....................................                ",
"               .....................................                .....................................              ",
"             .....................................                    .....................................            ",
"           .....................................                        ....................................           ",
"          .....................................                          .....................................         ",
"        .....................................                              .....................................       ",
"      .....................................                                  .....................................     ",
"    .....................................                                     .....................................    ",
"   .....................................                                        .....................................  ",
" .....................................                                            .....................................",
" ...................................                                                ...................................",
" .................................                                                   ..................................",
" ................................                                                      ................................",
" ..............................                                                          ..............................",
" ............................                                                              ............................",
" ...........................                                                                ...........................",
" .........................                                                                    .........................",
" .......................                                                                        .......................",
" .....................                                                                           ......................",
" ....................                                                                              ....................",
" ..................                                       ....                                      ...................",
" ..................                                     ........                                     ..................",
" ..................                                   ...........                                    ..................",
" ..................                                  ..............                                  ..................",
" ..................                                ..................                                ..................",
" ..................                              ......................                              ..................",
" ..................                            .........................                             ..................",
" ..................                           ............................                           ..................",
" ..................                         ................................                         ..................",
" ..................                       ....................................                       ..................",
" ..................                     .......................................                      ..................",
" ..................                    ..........................................                    ..................",
" ..................                    ..........................................                    ..................",
" ..................                    ..........................................                    ..................",
" ..................                    ..........................................                    ..................",
" ..................                    ..........................................                    ..................",
" ..................                    ..........................................                    ..................",
" ..................                    ..........................................                    ..................",
" ..................                    ..........................................                    ..................",
" ..................                    ..........................................                    ..................",
" ..................                    ..........................................                    ..................",
" ..................                    ..........................................                    ..................",
" ..................                    ..........................................                    ..................",
" ..................                    ..........................................                    ..................",
" ..................                    ..........................................                    ..................",
" ..................                    ..........................................                    ..................",
" ..................                    ..........................................                    ..................",
" ..................                    ..........................................                    ..................",
" ..................                    ..........................................                    ..................",
" ..................                    ..........................................                    ..................",
" ..................                    ..........................................                    ..................",
" ..................                    .........................................                     ..................",
" ..................                    ........................................                      ..................",
" ..................                    ......................................                        ..................",
" ..................                    ....................................                          ..................",
" ..................                    ..................................                            ..................",
" ..................                    .................................                             ..................",
" ..................                    ...............................                               ..................",
" ..................                    .............................                                 ..................",
" ..................                    ............................                                  ..................",
" ..................                    ..........................                                    ..................",
" ..................                    ........................                                      ..................",
" ..................                    ........................                                     ...................",
" ..................                    ........................                                    ....................",
" ..................                    ........................                                  ......................",
" ..................                    ........................                                ........................",
" ..................                    ........................                              ..........................",
" ..................                    ........................                             ...........................",
" ..................                    ........................                           .............................",
" ..................                    ........................                         ...............................",
" ..................                    ........................                       .................................",
" ..................                    ........................                      ..................................",
" ..................                    ........................                    ....................................",
" ..................                    ........................                  ......................................",
" ..................                    ........................                ........................................",
" ..................                    ........................               .........................................",
" ..................                    ........................             ...........................................",
" ..................                    ........................           .............................................",
" ..................                    ........................          ............................................. ",
"   ................                    ........................        ..............................................  ",
"     ..............                    ........................      ..............................................    ",
"      .............                    ........................    ..............................................      ",
"        ...........                    ........................   ..............................................       ",
"          .........                    ........................ ..............................................         ",
"            .......                    .....................................................................           ",
"             ......                    ...................................................................             ",
"               ....                    ..................................................................              ",
"                 ..                    ................................................................                ",
"                                       ..............................................................                  ",
"                                       ............................................................                    ",
"                                       ...........................................................                     ",
"                                       .........................................................                       ",
"                                       .......................................................                         ",
"                                       ......................................................                          ",
"                                       ....................................................                            ",
"                                       ..................................................                              ",
"                                       ................................................                                ",
"                                       ...............................................                                 ",
"                                       .............................................                                   ",
"                                       ...........................................                                     ",
"                                       .........................................                                       ",
"                                         ......................................                                        ",
"                                           ..................................                                          ",
"                                             ..............................                                            ",
"                                              ...........................                                              ",
"                                                ........................                                               ",
"                                                  ....................                                                 ",
"                                                    ................                                                   ",
"                                                     ..............                                                    ",
"                                                       ..........                                                      ",
"                                                         ......                                                        ",
"                                                          ...                                                          ",
"                                                                                                                       "
};
